/* XPM */
static char *result[] = {
/* columns rows colors chars-per-pixel */
"50 50 82 1 ",
"  c #939393",
". c gray58",
"X c #959595",
"o c #979797",
"O c #989898",
"+ c gray60",
"@ c #9A9A9A",
"# c #9D9D9D",
"$ c gray62",
"% c #A0A0A0",
"& c gray63",
"* c #A2A2A2",
"= c #A5A5A5",
"- c gray65",
"; c #A7A7A7",
": c gray66",
"> c #AAAAAA",
", c gray67",
"< c #ACACAC",
"1 c #AEAEAE",
"2 c gray69",
"3 c #B1B1B1",
"4 c #B2B2B2",
"5 c #B4B4B4",
"6 c gray71",
"7 c #B6B6B6",
"8 c #B7B7B7",
"9 c gray73",
"0 c #BCBCBC",
"q c gray75",
"w c #C0C0C0",
"e c #C1C1C1",
"r c gray76",
"t c gray77",
"y c #C5C5C5",
"u c #C6C6C6",
"i c gray78",
"p c gray79",
"a c #CBCBCB",
"s c gray80",
"d c #CDCDCD",
"f c #CECECE",
"g c gray82",
"h c #D2D2D2",
"j c LightGray",
"k c gray83",
"l c gray84",
"z c #D7D7D7",
"x c #D8D8D8",
"c c gray85",
"v c gainsboro",
"b c #DDDDDD",
"n c gray87",
"m c #DFDFDF",
"M c #E1E1E1",
"N c #E2E2E2",
"B c gray89",
"V c gray90",
"C c #E6E6E6",
"Z c #E7E7E7",
"A c gray91",
"S c #E9E9E9",
"D c #ECECEC",
"F c gray93",
"G c #EEEEEE",
"H c #EFEFEF",
"J c #F1F1F1",
"K c gray95",
"L c #F3F3F3",
"P c #F4F4F4",
"I c gray96",
"U c #F6F6F6",
"Y c gray97",
"T c #F8F8F8",
"R c #F9F9F9",
"E c gray98",
"W c #FBFBFB",
"Q c gray99",
"! c #FDFDFD",
"~ c #FEFEFE",
"^ c white",
"/ c None",
/* pixels */
"//////////////////////////////////////////////////",
"//////////////////////////////////////////////////",
"//////////////////////////////////////////////////",
"//////////////////////////////////////////////////",
"//////////////////////////////////////////////////",
"//////////////////////////////////////////////////",
"//////////////////////////////////////////////////",
"//////////////////////////////////rE^^^P5/////////",
"////////////////////////////////N^^do/Of^^g///////",
"//////////////////////////////t^^6///////9^Y//////",
"////////////////////////////+!^l///////////^W/////",
"///////////////////////////H^J/////4!^^^^m/2^A////",
"/////////////////////////z^!#/////E^^^^^^^^d^^////",
"///////////////////////4^^y/////A^^^^^^^^^^^^^F///",
"//////////////////////E^V/////a^^^^^^^^^^^^^^^^///",
"////////////////////Z^E/////&^^^^^^^^^^^^^^^^^^///",
"//////////////////s^^6/////K^^^^^^^^^^^^^^^^^^^///",
"////////////////<^^z/////z^^^^^^^^^^^^^^^^^^^^^///",
"///////////////Y^F////////^^^^^^^^^^^^^^^^^^^^^///",
"/////////////C^Q //////////^^^^^^^^^^^^^^^^^^^^///",
"///////////a^^8////////////0^^^^^^^^^^^^^^^^^^C///",
"/////////;^^c///////////////J^^^^^^^^^^^^^^^^^////",
"////////P^H//////////////////^^^^^^^^^^^^^^^^b////",
"//////u^!@///////////////////B^^^^^^^^^^^^^^L/////",
"/////x^k//////////////////////^^^^^^^^^^^^^H//////",
"////5^e///////////////////////^^^^^^^^^^^^0///////",
"////^V///////////////////////T^^^^^^^^^^v/////////",
"///r^//////////////////////N^^^^^^^^^^K///////////",
"///~S////////////////////w^^^S8^^^^^~#////////////",
"///^=//////////////////X!^^E///^^^^q//////////////",
"///^//////////////////D^^^7///n^^M////////////////",
"///^////////////////d^^^c////L^L//////////////////",
"///^//////////////:^^^L////v^!*///////////////////",
"///^i////////////I^^^%///0^^i/////////////////////",
"///F^//>p//////M^^^p/// W^V///////////////////////",
"////^;//5^^KP^^^^C////D^R/////////////////////////",
"////G^////z^^^^S////h^^1//////////////////////////",
"/////^R///////////,^^j////////////////////////////",
"//////^^3////////U^F//////////////////////////////",
"///////S^^k$/.eE^Q+///////////////////////////////",
"/////////m^^^^^I-/////////////////////////////////",
"//////////////////////////////////////////////////",
"//////////////////////////////////////////////////",
"//////////////////////////////////////////////////",
"//////////////////////////////////////////////////",
"//////////////////////////////////////////////////",
"//////////////////////////////////////////////////",
"//////////////////////////////////////////////////",
"//////////////////////////////////////////////////",
"//////////////////////////////////////////////////"
};
