/* XPM */
static char *_c1b55af88f747088a9a07139c0e0063vjPSOGnyNvIRiygG[] = {
/* columns rows colors chars-per-pixel */
"50 50 207 2 ",
"   c None",
".  c gray12",
"X  c #1D1C16",
"o  c #2B2819",
"O  c #3D381C",
"+  c #2C2C2C",
"@  c #3A3A39",
"#  c #413E35",
"$  c #574F38",
"%  c #585132",
"&  c #7F5A20",
"*  c #786429",
"=  c #786938",
"-  c #6B6134",
";  c #4A4948",
":  c #565656",
">  c #645D4C",
",  c #766942",
"<  c #7E7146",
"1  c #6F6857",
"2  c #656565",
"3  c #7C7B76",
"4  c #844D11",
"5  c #875B1C",
"6  c #A05D13",
"7  c #A96517",
"8  c #B96A16",
"9  c #886727",
"0  c #976E24",
"q  c #907731",
"w  c #A6782A",
"e  c #A46D20",
"r  c #C97518",
"t  c #D57C1B",
"y  c #D97E1D",
"u  c #C27820",
"i  c #827549",
"p  c #827446",
"a  c #8A7B50",
"s  c #837F77",
"d  c #9B8836",
"f  c #B9862A",
"g  c #B28833",
"h  c #BFA530",
"j  c #DC831E",
"k  c #D6831D",
"l  c #E1861F",
"z  c #C2892B",
"x  c #DC8826",
"c  c #CA9832",
"v  c #D69835",
"b  c #DD902F",
"n  c #E18720",
"m  c #E48B22",
"M  c #EB8F23",
"N  c #E58E2C",
"B  c #EB9324",
"V  c #EE9926",
"C  c #EC962B",
"Z  c #E7942A",
"A  c #F29C27",
"S  c #F29C2A",
"D  c #FA9B2B",
"F  c #F29627",
"G  c #E79935",
"H  c #F99E32",
"J  c #DCA637",
"K  c #DBBB36",
"L  c #CEB230",
"P  c #F5A32B",
"I  c #FBA32C",
"U  c #FBAB2C",
"Y  c #F6A92B",
"T  c #FCB32D",
"R  c #FEBB2D",
"E  c #E4AC3E",
"W  c #E8A637",
"Q  c #FFA432",
"!  c #FCAC33",
"~  c #FEAC3C",
"^  c #F8A836",
"/  c #EBB43D",
"(  c #FDB334",
")  c #FEBB33",
"_  c #FCB53B",
"`  c #FEBB3C",
"'  c #F6BC3A",
"]  c #FEC42E",
"[  c #EACF37",
"{  c #FEC433",
"}  c #FFCB34",
"|  c #FEC439",
" . c #FFCB3B",
".. c #FFD334",
"X. c #FFDF36",
"o. c #FFD33C",
"O. c #FFDC3B",
"+. c #EED338",
"@. c #FFE235",
"#. c #FFE23B",
"$. c #968754",
"%. c #9B884F",
"&. c #A7965B",
"*. c #BEA65D",
"=. c #988C6D",
"-. c #AC9A61",
";. c #B09E71",
":. c #B9A666",
">. c #E29641",
",. c #C9A645",
"<. c #C6AA58",
"1. c #ECA647",
"2. c #FFB545",
"3. c #F3BC40",
"4. c #FEBC43",
"5. c #FEBC4C",
"6. c #F7B448",
"7. c #ECA859",
"8. c #F8B757",
"9. c #F6AA40",
"0. c #C8B268",
"q. c #D5BD74",
"w. c #CEB86F",
"e. c #EEB26A",
"r. c #FEC245",
"t. c #FFCC44",
"y. c #FEC44C",
"u. c #FECC4D",
"i. c #F7C245",
"p. c #FFD345",
"a. c #FFDC44",
"s. c #FFD34D",
"d. c #FFDB4B",
"f. c #E8C757",
"g. c #FFC353",
"h. c #FFCD53",
"j. c #FFC659",
"k. c #FFCC5A",
"l. c #F5C556",
"z. c #FFD354",
"x. c #FFDB52",
"c. c #FFD35B",
"v. c #FFDC5E",
"b. c #F7D35B",
"n. c #EDCA46",
"m. c #FFE343",
"M. c #FFE34C",
"N. c #FFE353",
"B. c #FFE35C",
"V. c #DBC47A",
"C. c #FFCD63",
"Z. c #F6C965",
"A. c #FFD564",
"S. c #FFD964",
"D. c #FFD56B",
"F. c #FFDC6C",
"G. c #F2D36B",
"H. c #E6CC7C",
"J. c #FECD72",
"K. c #FAC87B",
"L. c #FFD472",
"P. c #FFDC73",
"I. c #FED47E",
"U. c #FFDC7B",
"Y. c #FFE463",
"T. c #FFE36C",
"R. c #FFE472",
"E. c #FFE37C",
"W. c #DCC286",
"Q. c #EDCF88",
"!. c #F3C38B",
"~. c #EDD587",
"^. c #FBDE84",
"/. c #FDD48C",
"(. c #FFDC8B",
"). c #F4DA87",
"_. c #F5C992",
"`. c #ECD196",
"'. c #FBD59A",
"]. c #FFDC98",
"[. c #F7D396",
"{. c #E5CC94",
"}. c #FFE384",
"|. c #FFE48C",
" X c #FFE592",
".X c #FFE098",
"XX c #F4CFA3",
"oX c #FDDCA5",
"OX c #F9D4A4",
"+X c #FBDDB2",
"@X c #F7DBBA",
"#X c #FFE3A5",
"$X c #FFE5B3",
"%X c #FCE4BF",
"&X c #FEE9BF",
"*X c #F7DEC1",
"=X c #FFE9C0",
"-X c #FBE6CB",
";X c #FEEBCC",
":X c #FCE5C3",
">X c #FDECD6",
",X c #FDEED9",
"<X c #FFF0D8",
"1X c #FEF2E1",
"2X c #FEF6EB",
"3X c #FEF9F3",
"4X c #FFFDFA",
/* pixels */
"                                            4 4 4 4 4                                               ",
"                                  6 r n m m N Z N N N N x y t 7                                     ",
"                              y l N 7.!.@X,X2X4X4X4X3X1X-XXXe.>.y t                                 ",
"                          t n G !.>X3X3X3X3X3X3X3X3X3X3X3X3X3X2X@Xe.b t                             ",
"                      r l G !.,X2X2X2X2X2X2X2X2X2X2X2X2X2X2X2X2X2X2X*X7.n r                         ",
"                    j n 1.*X1X<X1X1X1X1X1X1X1X1X1X1X1X1X1X1X1X1X1X,X1X,X_.N j                       ",
"                  l M 7.*X,X>X>X,X,X,X<X<X<X<X<X<X<X<X<X<X,X>X>X>X>X>X>X>XXXN x 8                   ",
"                l M 1.*X-X-X-X;X-X;X;X;X;X;X;X;X;X;X;X;X;X;X;X-X;X;X;X-X-X-X_.N n 8                 ",
"              l m S '.%X:X:X&X:X=X=X=X=X=X=X&X&X=X=X=X=X=X&X&X&X=X:X&X%X%X@X@Xe.n j 8               ",
"            l B B e.+X+X+X$X$X$X$X$X$X$X$X$X$X$X$X$X$X$X$X$X$X$X$X$X$X$X$X+X+XOXG n j               ",
"          t l M F /.oXoXoX#XoX#X#X#X#X#X#X#X#X#X#X#X#X$X#X#X#X#X#XoXoXoXoXoXOXOX8.m l t             ",
"        7 l B A 9.'.'.'.].].].].[.`..X.X.X X].]. X.X X.X.X X X`.{. X].].].].'.[.K.B m j r           ",
"        n M F A 6././././.(.(.Q.=.3 W.[.(.(.^.(.(.|.^.^.|.(.Q.=.3 W.(./.(./././.!.B B l j           ",
"      r m B A P 2./.I./.I.I.^.;.2 2 =.^.U.U.^.U.U.U.U.U.E.U.;.2 2 =.U.^.I.I.I.K.J.B B m l t         ",
"      n B A A Y ~ J.J.J.L.L.L.1 : : 2 G.D.F.F.F.F.F.F.F.F.F.3 : : 1 L.L.L.L.J.J.l.P A B j k         ",
"    7 M F A I U T C.C.C.A.A.Z.> ; ; ; f.v.S.v.S.v.v.v.v.v.b.> ; ; ; S.A.A.A.C.Z.5.P P B m j r       ",
"    l F A P U U T r.k.k.z.k.b.; @ @ @ f.z.x.d.x.x.x.x.x.x.x.$ @ @ @ x.x.v.k.k.j.) Y P V B j j       ",
"    M F D I U T R ) y.h.h.s.s.% + + @ n.d.d.a.a.a.a.a.a.m.a.- + + % d.s.z.s.h.| T T Y V B m k       ",
"  8 F A P I U T R R | t.t.p.p.9 . X % X.a.X.X.@.X.X.#.X.#.#.d . . * a.p.p.p.t.] R T T P V B l r     ",
"  k A I I U T T R ) ] | t.o.o.K o X c X.X.X.X.@.@.@.#.@.#.#.[ O o K O.O.O.o...] ] R T Y S B m k     ",
"  B D I I ! T R ) { { } } o.o.o.K L X.#.X.@.@.@.@.@.@.@.@.#.#.+.[ #.O.O.O.....} ] ] T Y P Z Z j     ",
"  F D I U T ( ) { { | } o...O.O.X.@.O.O.#.#.@.@.@.#.#.#.#.m.#.m.m.m.m.#.O.O.....[ ] R T Y S B n     ",
"  D I I ! ! ( ) {  . .o.o.a.a.a.m.a.m.m.m.m.m.m.#.m.m.M.M.M.M.N.N.M.M.M.a.O.O.o.| } { ( ! P V m     ",
"  D I Q ! ( ( ` |  . .p.s.d.d.M.N.N.N.N.N.N.N.N.N.N.N.B.B.B.B.B.B.B.B.N.N.d.d.p.o.| | ( ! W V Z     ",
"  D Q Q ! ( _ ` | t.u.z.x.x.v.B.Y.Y.Y.Y.Y.Y.Y.Y.Y.Y.Y.T.T.T.T.R.T.T.T.Y.Y.B.N.d.p. .| _ ( ^ P C     ",
"  D Q Q Z ( ` r.t.u.s.x.v.Y.T.T.T.R.R.R.R.R.T.R.R.R.R.R.R.E.E.E.E.E.E.R.T.Y.B.N.d.p.t.' J ^ P C     ",
"  D Q Q 5 W ` r.u.z.c.v.T.T.R.R.R.}.R.}.E.E.R.E.R.R.E.E.}.}.|.}.|.}.}.E.E.R.Y.B.b.d.t.h f Y ^ C     ",
"  D Q Q b 0 4.y.u.c.S.F.P.E.}.}.|.|.|.}.|.|.}.}.|.|.|.|.|.|.|.|.|.|.|.|.}.E.R.T.v.z.s.& E ' ^ S     ",
"  B Q ~ ~ 5 1.y.k.A.F.P.R.E.|.|.|.|.|.|.|.|.|.|.|.|.|.|.|.|. X X X X X|.}.}.E.R.Y.x.,.w 4._ ! S     ",
"  u Q Q _ v 9 h.k.S.F.E.}.|.|.|. X X X X X|. X|.|.|. X|. X X X X X X X|.|.|.E.R.F.b.* i.r._ ( N     ",
"    Q ~ _ 2.w %.A.F.R.E.|.|. X X X X X X X X X X X X X X X X X X X X X X X|.}.R.T.%.*.t.r.` _ e     ",
"    H ~ ~ 2.y.9 ,.T.E.}.|.|. X X X X X X X X X X X X X X X X X X X X X X X|.}.R.*.q h.t.r.4.!       ",
"    N ~ ~ 2.5.8.= <.U.^.|. X X X X X X X X X X X X X X X X X X X X X X X X|.}.0.= v.c.u.r.2.G       ",
"      Q 2.2.5.j.k.= <.}.}.|. X X X X X.X X X.X X X X X X X X X X X X X X|.|.V.- G.S.c.y.r.4.e       ",
"      C ~ 2.5.j.C.J.p %.^. X X X X X X X X X X X X X X X X X X X.X X X X|.-.< U.T.A.k.y.r.~         ",
"        ~ 2.5.j.C.D.P.*.= V.|. X X X X X.X X X X X X X X X X X X X X X).< &.U.P.F.v.k.y.4.w         ",
"        b 2.5.8.j.D.L.U.H.i $.Q. X X X X X X X X X X X X X X X X X X-., V.E.E.P.S.c.h.5.W           ",
"          ~ 2.5.j.C.D.U.^.^.q.< $.V. X X X X X X X X X X X X X~.-., :.}.}.E.P.F.A.k.g.5.            ",
"            2.5.g.C.C.L.U.U.E.|.q.$.< -.V. X X X X X X XQ.-.< i :.|.}.}.E.R.P.S.c.h.r.z             ",
"            z 2.5.j.C.A.P.U.U.^.|.|.).q.$.< i i i i < < $.w.).|. X|.}.E.R.P.S.b.k.y.J               ",
"              G 5.5.j.C.D.L.P.U.^.}.}.}.|.|.|.|.|.|.|.}.|.}.}.}.}.E.P.P.T.S.c.k.y./                 ",
"                v 5.y.k.C.S.L.P.U.U.U.}.}.^.}.}.}.^.}.}.}.}.E.E.U.R.F.F.S.c.z.u.1.                  ",
"                  f 5.y.k.k.A.D.D.P.P.U.U.U.E.U.U.E.E.E.P.P.R.P.F.F.S.v.z.z.t.v                     ",
"                      6.g.h.k.c.A.S.F.D.F.P.P.P.P.P.P.P.F.F.F.S.S.x.c.z.s.i.d                       ",
"                        c 5.y.z.c.c.v.v.A.S.S.F.S.S.D.S.S.S.c.c.c.z.s.u.J                           ",
"                            v i.y.h.k.k.k.c.c.b.c.c.c.c.z.z.z.s.u.u.J                               ",
"                                f E i.t.u.h.h.h.h.h.u.s.s.u.u.3.f                                   ",
"                                      9 f E 3.3.| 3.3./ f 0                                         ",
"                                                                                                    ",
"                                                                                                    "
};
