/* XPM */
static char *c23a9359465d4881e75e423c0ed13093M7tECoaiJBnERFQT[] = {
/* columns rows colors chars-per-pixel */
"50 50 215 2 ",
"   c None",
".  c #060505",
"X  c #0A0607",
"o  c #0D0709",
"O  c #0A0A0A",
"+  c #130A0D",
"@  c #180B0F",
"#  c #140E10",
"$  c #1C0D12",
"%  c #151112",
"&  c #1C1216",
"*  c #1F1318",
"=  c #1B130D",
"-  c #200F14",
";  c #221116",
":  c #261219",
">  c #2A141B",
",  c #2A1A1F",
"<  c #30171F",
"1  c #391B18",
"2  c #37261B",
"3  c #2C1B21",
"4  c #341A23",
"5  c #3A1D26",
"6  c #3E1E29",
"7  c #301720",
"8  c #342429",
"9  c #3D232D",
"0  c #39282E",
"q  c #3A2326",
"w  c #3E2A31",
"e  c #2B2125",
"r  c #451F15",
"t  c #5A1F19",
"y  c #462516",
"u  c #5C2913",
"i  c #58271A",
"p  c #51240E",
"a  c #6A270B",
"s  c #782B0B",
"d  c #672C18",
"f  c #762B17",
"g  c #6D3117",
"h  c #773519",
"j  c #713E0C",
"k  c #401F2A",
"l  c #43212D",
"z  c #492722",
"x  c #542622",
"c  c #5A2825",
"v  c #59332F",
"b  c #462430",
"n  c #4A2532",
"m  c #422E34",
"M  c #4D2935",
"N  c #4F2B38",
"B  c #512936",
"V  c #552B3A",
"C  c #5A2E3D",
"Z  c #4C353D",
"A  c #52333D",
"S  c #5A313F",
"D  c #6A2C2D",
"F  c #67342E",
"G  c #733229",
"H  c #642D35",
"J  c #6B3337",
"K  c #753738",
"L  c #69413B",
"P  c #543641",
"I  c #5D3442",
"U  c #533A42",
"Y  c #5C3A45",
"T  c #4F3840",
"R  c #633343",
"E  c #693547",
"W  c #6B3748",
"Q  c #6D394B",
"!  c #653A49",
"~  c #723A4D",
"^  c #773D51",
"/  c #793E52",
"(  c #5C424A",
")  c #62454E",
"_  c #664648",
"`  c #6A4854",
"'  c #764656",
"]  c #7C4155",
"[  c #7C4658",
"{  c #7B4B5B",
"}  c #774D57",
"|  c #76525E",
" . c #7C5964",
".. c #7C5260",
"X. c #872B06",
"o. c #952F07",
"O. c #833A1C",
"+. c #893D1E",
"@. c #94351E",
"#. c #A83206",
"$. c #A9351E",
"%. c #B0371E",
"&. c #853929",
"*. c #893938",
"=. c #9B3E3D",
"-. c #973C37",
";. c #943F27",
":. c #B63D27",
">. c #A63E36",
",. c #AC3D31",
"<. c #B23E30",
"1. c #A53724",
"2. c #D93D06",
"3. c #CA3E23",
"4. c #A4501F",
"5. c #984426",
"6. c #9F4A3B",
"7. c #8D4431",
"8. c #B8562C",
"9. c #A94934",
"0. c #B95336",
"q. c #B04A2C",
"w. c #AE6B38",
"e. c #8D520B",
"r. c #E94206",
"t. c #FF4606",
"y. c #FF4A07",
"u. c #F74406",
"i. c #FF5208",
"p. c #FF5B0A",
"a. c #C86C0F",
"s. c #FF630A",
"d. c #FF6B0D",
"f. c #FF760F",
"g. c #FF6911",
"h. c #FC7912",
"j. c #D34A29",
"k. c #CA5B3D",
"l. c #C65835",
"z. c #D75B32",
"x. c #D2582F",
"c. c #E05731",
"v. c #D9613E",
"b. c #CA7939",
"n. c #D77530",
"m. c #E3653C",
"M. c #F06A3B",
"N. c #833D49",
"B. c #903E44",
"V. c #85424D",
"C. c #8C454B",
"Z. c #934747",
"A. c #974947",
"S. c #974947",
"D. c #804659",
"F. c #834A5D",
"G. c #834655",
"H. c #914C54",
"J. c #A44E45",
"K. c #A04D4B",
"L. c #AD5243",
"P. c #BA5643",
"I. c #A45453",
"U. c #B55C50",
"Y. c #894E62",
"T. c #854D60",
"R. c #8B5266",
"E. c #8D5A6C",
"W. c #885766",
"Q. c #91566A",
"!. c #945A6D",
"~. c #925C61",
"^. c #955E71",
"/. c #985F73",
"(. c #8E6573",
"). c #996476",
"_. c #936876",
"`. c #9E6679",
"'. c #9A6B7B",
"]. c #A46C7A",
"[. c #AE6562",
"{. c #C35A42",
"}. c #C46454",
"|. c #B68B2B",
" X c #FF8B12",
".X c #FF8317",
"XX c #FF9A16",
"oX c #FF991B",
"OX c #F18C13",
"+X c #FFA414",
"@X c #FFA51A",
"#X c #FFAB1A",
"$X c #FFB61A",
"%X c #D9973C",
"&X c #D38739",
"*X c #FF9A25",
"=X c #F18C29",
"-X c #C5A232",
";X c #FFAC29",
":X c #FFB321",
">X c #FFBA26",
",X c #FFBF29",
"<X c #E9A938",
"1X c #F9BD34",
"2X c #EDB63C",
"3X c #FFC41A",
"4X c #FFC22D",
"5X c #FFC82B",
"6X c #FDC933",
"7X c #F7C437",
"8X c #A76F82",
"9X c #AA7586",
"0X c #AA7587",
"qX c #B37D8F",
"wX c #B98395",
/* pixels */
"                                            O O O + O   % % . O                                     ",
"                        e U U 0 % O O   O T _. .E.^.} O W.).!.| ) m % O                             ",
"                      % 0X) l n V C C M M x x F J K K } C.C.C.V./ F.`.(.U %                         ",
"                      ( R.^ ] ] V.Z.P.k.9.u p p u u d 8.k.k.k.L.K.P.[._._ 2                         ",
"                    , E./ / N.A.J.v.5.d c J N.N.N.N.H c x c i O.l.9.1 J C.z                         ",
"                  O _.9X!.H.K.k.z.g D B.B.B.B.B.B.K H B.C.*.B.*.i r r u g v m 8 O                   ",
"                  = z 9 J 5.q.&.i -.=.B.=.A.=.=.B.D D =.=.=.=.=.=.G p m.{.I.).0X( O                 ",
"                  2 L.>.>.&.r *.>.>.9.b.%X0.>.>.>.&.D >.>.>.>.>.6.K i k.S.C./ / ].&                 ",
"                & Z w q d <.x ,.<.0.7X5X3X5X%X&X&X%X6X7X7X<Xb.,.9.*.f 0.C.Z.N./ ).T                 ",
"                ( !.!.}.O.$.c :.l.2X$X$X3X$X4X>X;X@X.Xg.h.XX>X1Xn.:.@.5.Z.Z.C./ R.U O               ",
"              . (.] V.{.+.$.G <X5X5X X@X+X X*X#Xp.t.t.y.t.t.p. X,X<X%.g {.Z.Z./ R.U %               ",
"              # 0X] A.v.a n.|.@XXX,X*X.X.X;X4XXXy.t.y..X*Xg.t.t.d.$X%XG d 0.Z.^ !.Z e               ",
"              0 0X] J.4.4.6X Xy.y. X#X:X:XXXf.y.t.y.;X:X3X6Xh.t.t.f.6X7.i &.Z.] `.m m               ",
"              ` wXG.S.l.|.OXy.y.t.t.y.i.i.t.y.t.y.oX*X@X$X+X1Xd.t.y.;Xw.y 6.C.] _.l m               ",
"            O '. .).C.S.{.h X.r.t.t.y.t.t.t.t.t.p.:X;Xf.s.f.,X@Xt.t. X-Xd Z.V.!.( W n               ",
"            & 0XS 8 W.C.Z.K.l.h o.t.t.t.t.t.t.t.t.f.@X,X4X4X@Xd.t.u.a.-X6.C.] ` 5 R V O             ",
"            3 `.qX8Xm A G.N.I.M.5.#.r.t.y.t.t.t.t.t.t.p.s.p.y.y.t.2.d 8.{.!.^.Z R B C + #           ",
"            8 ] / Y.Q.I 4 w R.K.v.8.O.s o.t.t.t.t.t.t.t.t.t.t.t.t.2.O.7.u v m } R n M 3 8           ",
"            w Q./ / / / ^ Y T /.!.I.{.z.&.#.t.y.t.t.t.t.2.X.a 2.y.r.f 3.j.z.i D.I n 5 $ '.%         ",
"            l R ^ / / / ] wX~ n P ) ..!.B y a s s X.s s &.0.k.a u.h.f 3.j.x.v D.C b 7 b ).9Xw       ",
"            M M M R / / W  ./ / / / R 6 7 C &.P.P.U.[.~.].].~.( e.j @.;.j.c.v R.V 6 > b ~ / ^..     ",
"            M n b n V R W  .T./ / / / C 5 - ( Y P 9 7 < q A R B 1 %.3.%.f O.` [ M 7 > > n M P X     ",
"            4 V n n n n n  .D./ / / / M : 8 8X^ E I q Y F.] ] ] H i j.j.5.!.8XW l > - : n l > *     ",
"          . V V ' n n n 6 { / / / / / M $ 3 `./ / / ] ~ ] ~ ] ~ C R i F W.R.A Y.6 > > n n - I :     ",
"      & m : V 4 Q.[ n n 5 5 I W / ^ / E ; # 8X/ / / / / / / / / V B C I ^ ^ ~ k > > 6 n ; 4 E 4     ",
"    # '...n l 3 Y./ [ I 4 9 n n I ^ / Q n ; './ / / / / ^ / / / n < < 4 l C n 6 7 > 6 $ 5 n ~ l     ",
"    w ] P C 5 > T.R.R.T.R.n n n n n V V n 5 ` [ / / / / / / / R 4 > > > > k n n > 7 > > 6 6 n n +   ",
"    U T.w I 7 > / / N.T.R.P n n V n n n n n 8 ^./ / / / / ~ V n 6 > > > > 4 n n 6 $ > > > > 7 n 5 O ",
"  O ` [ ` 9 > 5 / / / / / 4 N R.Q.[ V n n n M 8X/ / ~ R V n n ! R.k k 5 7 > n n n + : > > > > k b O ",
"  O ' / ^.0 : b / / / ~ I ; 4 { D./ R.[ V n n Q W B n n n C Y.Y.W > > < - > n n n $ : : > > > < 7   ",
"  ; ` / W I + V ^ Q I M n $ : 4 Q./ / ] T.F.{ { ] V n V { R.] ] V > > > - 4 n n n : - > ; > > > #   ",
"O V ) ^ M W > n V n n n n $ ; ; n Y Y Y Y I Y Y 9 : b ` [ W V l 7 > > > - 4 n n n 4 - > - : > > O   ",
"O C Z C n C ~ > $ : 4 n n $ $ ; + l n n B B B B V V n . * P ! ' Q.' 4 > > < l n n l @ > @ $ - > O   ",
"  5 > V R B I ^ / R l - ; $ - - o E C n n n n n n n R o O Q T.] P 8 7 # - - - > 4 l - > > o - +     ",
"  $ n , > M W / / ^ / / R $ $ + > n Q / E I n n n n R o - + 7 6 I ^ / ~ < o - - - - - > > - + o     ",
"  O 4 5 n 4 ; 5 ~ C V B M B + + n n n H / / / ~ R V E o - $ M / ^ / / / ^ B o $ - - - > > - @ X     ",
"    & > < 6 n k n I n n n R . 4 n n n n B ~ / ^ ^ ^ / o : > 7 / ^ ^ / / / Q I # $ - - > - - - o     ",
"    o > > > > < > n C n n R $ 6 n n n n n n R ~ ~ ^ / + > > @ / / / / E 7 : l $ $ $ + + @ @ X       ",
"    O : > > > > - > l C n C 5 : < 4 4 4 < : @ $ $ > n @ > > $ V ~ ~ ~ $ M V B X @ o o o O O         ",
"      o - > > > : : : l R n V $ > > > > > > > > > > : @ $ > > n n n n - R R R n . X                 ",
"        O o + $ - - > 6 V R E $ 6 < > > > > > > > > > > o > 7 n n n n > M V M n +                   ",
"                o o - 5 6 > : C B B V V C V B k 4 : > > o : 4 n n n n b $ n n n >                   ",
"                  X $ > > - $ M C C C B b 5 < < 6 - - > - + 4 n n n n n : l n 4 O                   ",
"                    o : > $ $ n n k > > > > > < 6 - - - : o 4 n n n n n l ; ; O                     ",
"                      O o $ $ n n k > > > > > 4 k - - - - + > 6 5 4 7 : $ O                         ",
"                          o $ n n n < > > > > k k - - - - - . X .                                   ",
"                          O + n n n 4 > > > k b k - - - - - O                                       ",
"                            O $ k n k : > > 6 n k - - $ $ + .                                       ",
"                                X + : ; ; : 7 5 $ O O O O                                           ",
"                                      O O O O O                                                     "
};
